<svg xmlns:xlink="http://www.w3.org/1999/xlink" xmlns="http://www.w3.org/2000/svg" class="icon" focusable="false" width="30"  height="30" ><defs><symbol viewBox="0 0 96 96" id="instagram-bold" xmlns="http://www.w3.org/2000/svg"><path d="M41.56 5.004h12.88c6.046.022 7.725.088 11.289.25 4.577.21 7.703.936 10.438 1.999 2.827 1.099 5.225 2.57 7.616 4.96 2.39 2.39 3.86 4.789 4.96 7.616 1.019 2.625 1.73 5.611 1.97 9.896l.15 3.428c.101 2.775.133 5.555.136 13.312l-.009 8.204c-.022 5.858-.088 7.54-.25 11.056-.208 4.577-.935 7.703-1.997 10.438-1.1 2.827-2.57 5.225-4.96 7.616-2.391 2.39-4.79 3.86-7.616 4.96-2.626 1.02-5.612 1.73-9.896 1.97l-3.429.15c-2.775.102-5.555.133-13.312.137l-8.204-.01c-5.857-.022-7.538-.088-11.055-.25-4.577-.208-7.703-.934-10.438-1.997-2.827-1.1-5.225-2.57-7.616-4.96-2.39-2.391-3.861-4.79-4.96-7.616-1.02-2.626-1.73-5.612-1.97-9.896l-.12-2.62c-.119-2.915-.159-5.323-.166-12.71l.007-9.381c.021-6.047.087-7.726.25-11.29.21-4.576.937-7.702 1.999-10.437 1.099-2.827 2.57-5.225 4.96-7.616 2.39-2.39 4.789-3.861 7.616-4.96 2.625-1.02 5.611-1.73 9.895-1.97l2.621-.12c2.397-.097 4.45-.142 9.21-.159zm13.468 7.75H40.971c-5.353.023-6.969.087-10.347.24-4.192.192-6.47.892-7.984 1.48-2.007.78-3.44 1.713-4.944 3.218-1.505 1.504-2.437 2.937-3.217 4.944l-.186.496c-.522 1.452-1.079 3.56-1.274 7.062l-.138 3.177c-.09 2.447-.123 4.828-.131 10.757l.008 10.896c.022 5.353.086 6.969.24 10.347.192 4.193.892 6.47 1.48 7.985.78 2.007 1.713 3.44 3.218 4.944 1.504 1.505 2.937 2.437 4.944 3.217l.495.186c1.395.5 3.393 1.034 6.648 1.247l.84.047c4.328.197 5.764.247 15.872.25l8.475-.01c5.4-.022 7.015-.085 10.406-.24l.84-.047c3.662-.24 5.733-.885 7.144-1.433 2.007-.78 3.44-1.712 4.944-3.217 1.505-1.504 2.437-2.937 3.217-4.944l.185-.496c.522-1.453 1.079-3.56 1.274-7.062l.136-3.131c.091-2.466.125-4.84.133-10.814l-.008-10.827c-.022-5.4-.085-7.015-.24-10.405-.191-4.193-.891-6.47-1.48-7.985-.78-2.007-1.712-3.44-3.217-4.944-1.504-1.505-2.937-2.437-4.944-3.217l-.496-.186c-1.453-.522-3.56-1.078-7.062-1.273l-3.36-.145c-1.896-.068-3.806-.101-7.414-.117zM48 25.914c12.195 0 22.08 9.886 22.08 22.082 0 12.194-9.885 22.081-22.08 22.081-12.195 0-22.081-9.887-22.081-22.08 0-12.197 9.886-22.083 22.08-22.083zm0 7.748c-7.916 0-14.333 6.417-14.333 14.334 0 7.916 6.417 14.333 14.333 14.333s14.333-6.417 14.333-14.333c0-7.917-6.417-14.334-14.333-14.334zm22.953-13.78a5.16 5.16 0 110 10.32 5.16 5.16 0 010-10.32z"></path></symbol></defs>
							<use xlink:href="#instagram-bold" href="#instagram-bold"></use>
						</svg>