<svg xmlns:xlink="http://www.w3.org/1999/xlink" xmlns="http://www.w3.org/2000/svg" class="icon" focusable="false" width="30"  height="30" ><defs><symbol viewBox="0 0 96 96" id="twitter-bold" xmlns="http://www.w3.org/2000/svg"><path d="M31.304 84.563c33.964 0 52.537-28.13 52.537-52.524 0-.8-.016-1.595-.053-2.387A37.575 37.575 0 0093 20.095 36.871 36.871 0 0182.396 23a18.523 18.523 0 008.119-10.21 37.053 37.053 0 01-11.724 4.48 18.452 18.452 0 00-13.479-5.832c-10.198 0-18.467 8.268-18.467 18.459 0 1.449.162 2.857.479 4.209-15.346-.773-28.954-8.119-38.06-19.288a18.382 18.382 0 00-2.501 9.278c0 6.405 3.26 12.058 8.217 15.366a18.327 18.327 0 01-8.363-2.309c-.004.078-.004.154-.004.236 0 8.941 6.365 16.404 14.814 18.097a18.518 18.518 0 01-4.868.65 18.36 18.36 0 01-3.471-.334c2.351 7.334 9.167 12.673 17.25 12.822a37.061 37.061 0 01-22.934 7.903c-1.49 0-2.959-.085-4.404-.257a52.281 52.281 0 0028.304 8.293"></path></symbol></defs>
							<use xlink:href="#twitter-bold" href="#twitter-bold"></use>
						</svg>