<svg xmlns:xlink="http://www.w3.org/1999/xlink" xmlns="http://www.w3.org/2000/svg" class="icon" focusable="false" width="30"  height="30" ><defs><symbol viewBox="0 0 96 96" id="whatsapp-bold" xmlns="http://www.w3.org/2000/svg"><path d="M48 4C23.739 4 4 23.739 4 48a43.956 43.956 0 005.668 21.598L4.071 89.57A1.911 1.911 0 005.913 92c.153 0 .308-.02.46-.055l20.844-5.164A44.027 44.027 0 0048 92c24.261 0 44-19.739 44-44S72.261 4 48 4zm22.134 59.526c-.941 2.606-5.456 4.984-7.625 5.303-1.948.285-4.412.408-7.117-.442-1.64-.516-3.744-1.201-6.44-2.35-11.33-4.833-18.73-16.1-19.296-16.843-.565-.744-4.613-6.047-4.613-11.536 0-5.488 2.918-8.188 3.955-9.305 1.037-1.117 2.259-1.396 3.013-1.396s1.505.01 2.165.04c.695.034 1.626-.262 2.543 1.915.941 2.234 3.2 7.723 3.48 8.283.283.559.47 1.211.095 1.955s-.562 1.21-1.128 1.862c-.567.652-1.187 1.454-1.695 1.955-.567.556-1.154 1.16-.496 2.276.658 1.118 2.925 4.77 6.284 7.727 4.314 3.8 7.955 4.978 9.084 5.536 1.128.559 1.788.465 2.446-.279.658-.746 2.824-3.258 3.576-4.373.752-1.115 1.505-.932 2.542-.559 1.037.371 6.59 3.069 7.72 3.627 1.128.559 1.882.838 2.165 1.303.283.463.283 2.698-.658 5.301z"></path></symbol></defs>
							<use xlink:href="#whatsapp-bold" href="#whatsapp-bold"></use>
						</svg>