<svg xmlns:xlink="http://www.w3.org/1999/xlink" xmlns="http://www.w3.org/2000/svg" class="icon" focusable="false" width="30"  height="30" ><defs><symbol viewBox="0 0 96 96" id="youtube-bold" xmlns="http://www.w3.org/2000/svg"><path d="M46.415 15.003h3.174c6.211.033 28.834.27 35.138 1.965a11.79 11.79 0 018.31 8.336c1.662 6.217 1.918 18.146 1.958 21.682l.003 1.712c-.028 3.084-.247 15.579-1.96 21.994a11.793 11.793 0 01-8.311 8.336c-6.89 1.851-33.277 1.962-36.419 1.97l-3.137-.014c-7.542-.058-27.956-.36-33.894-1.956a11.794 11.794 0 01-8.311-8.336c-1.849-6.921-1.957-20.917-1.964-22.54l.01-1.364c.046-3.763.323-15.378 1.954-21.484a11.793 11.793 0 018.31-8.336c6.305-1.695 28.928-1.932 35.139-1.965zm-8.262 18.66V62.33l25.28-14.332-25.28-14.334z"></path></symbol></defs>
							<use xlink:href="#youtube-bold" href="#youtube-bold"></use>
						</svg>